<?xml version="1.0" encoding="UTF-8"?>
<!DOCTYPE svg PUBLIC "-//W3C//DTD SVG 1.1//EN" "http://www.w3.org/Graphics/SVG/1.1/DTD/svg11.dtd">
<svg xmlns="http://www.w3.org/2000/svg" version="1.1" width="256px" height="256px" style="shape-rendering:geometricPrecision; text-rendering:geometricPrecision; image-rendering:optimizeQuality; fill-rule:evenodd; clip-rule:evenodd" xmlns:xlink="http://www.w3.org/1999/xlink">
<g><path style="opacity:1" fill="#464646" d="M 51.5,-0.5 C 100.833,-0.5 150.167,-0.5 199.5,-0.5C 226.268,10.9606 233.435,29.9606 221,56.5C 214.278,64.2631 206.111,69.5965 196.5,72.5C 168.238,40.7344 133.905,31.901 93.5,46C 69.4038,56.9283 52.7371,74.7616 43.5,99.5C 27.7759,112.08 15.9426,127.746 8,146.5C 3.88441,156.971 1.05108,167.637 -0.5,178.5C -0.5,136.167 -0.5,93.8333 -0.5,51.5C 6.5,23.8333 23.8333,6.5 51.5,-0.5 Z"/></g>
<g><path style="opacity:0.99" fill="#2d2d2d" d="M 199.5,-0.5 C 200.833,-0.5 202.167,-0.5 203.5,-0.5C 231.14,6.47339 248.473,23.8067 255.5,51.5C 255.5,58.1667 255.5,64.8333 255.5,71.5C 251.132,95.534 237.799,112.534 215.5,122.5C 214.275,103.814 207.941,87.1478 196.5,72.5C 206.111,69.5965 214.278,64.2631 221,56.5C 233.435,29.9606 226.268,10.9606 199.5,-0.5 Z"/></g>
<g><path style="opacity:1" fill="#fcfcfc" d="M 196.5,72.5 C 207.941,87.1478 214.275,103.814 215.5,122.5C 215.62,161.782 198.287,190.282 163.5,208C 158.269,209.724 154.435,208.224 152,203.5C 151.667,193.5 151.333,183.5 151,173.5C 149.174,168.517 146.341,164.183 142.5,160.5C 156.898,159.222 168.398,152.889 177,141.5C 179.354,137.797 180.854,133.797 181.5,129.5C 185.422,117.675 183.588,106.675 176,96.5C 176.359,91.1927 176.359,85.8594 176,80.5C 175.761,72.2415 171.927,69.7415 164.5,73C 159.669,75.248 155.002,77.748 150.5,80.5C 134.993,79.1741 119.493,79.1741 104,80.5C 97.6131,75.5516 90.4464,72.7183 82.5,72C 80.8107,74.5575 79.644,77.3908 79,80.5C 78.6411,85.8594 78.6411,91.1927 79,96.5C 67.3381,116.542 69.8381,134.708 86.5,151C 94.381,156.304 103.048,159.471 112.5,160.5C 107.968,164.566 105.302,169.566 104.5,175.5C 98.1079,176.209 92.1079,175.043 86.5,172C 82.2756,166.432 76.9423,162.432 70.5,160C 64.0008,159.148 62.3341,161.481 65.5,167C 67.6079,167.36 69.6079,168.027 71.5,169C 76.5597,176.534 83.2264,182.2 91.5,186C 95.4402,187.015 99.4402,187.515 103.5,187.5C 103.91,193.621 103.41,199.621 102,205.5C 99.0913,208.394 95.5913,209.227 91.5,208C 53.6327,188.446 36.466,157.279 40,114.5C 40.9551,109.428 42.1217,104.428 43.5,99.5C 52.7371,74.7616 69.4038,56.9283 93.5,46C 133.905,31.901 168.238,40.7344 196.5,72.5 Z"/></g>
<g><path style="opacity:0.998" fill="#2d2d2d" d="M 181.5,129.5 C 158.241,132.778 141.741,145.444 132,167.5C 123.63,191.007 126.963,212.674 142,232.5C 152.982,244.737 166.482,252.404 182.5,255.5C 139.167,255.5 95.8333,255.5 52.5,255.5C 24.2818,248.949 6.61511,231.615 -0.5,203.5C -0.5,195.167 -0.5,186.833 -0.5,178.5C 1.05108,167.637 3.88441,156.971 8,146.5C 15.9426,127.746 27.7759,112.08 43.5,99.5C 42.1217,104.428 40.9551,109.428 40,114.5C 36.466,157.279 53.6327,188.446 91.5,208C 95.5913,209.227 99.0913,208.394 102,205.5C 103.41,199.621 103.91,193.621 103.5,187.5C 99.4402,187.515 95.4402,187.015 91.5,186C 83.2264,182.2 76.5597,176.534 71.5,169C 69.6079,168.027 67.6079,167.36 65.5,167C 62.3341,161.481 64.0008,159.148 70.5,160C 76.9423,162.432 82.2756,166.432 86.5,172C 92.1079,175.043 98.1079,176.209 104.5,175.5C 105.302,169.566 107.968,164.566 112.5,160.5C 103.048,159.471 94.381,156.304 86.5,151C 69.8381,134.708 67.3381,116.542 79,96.5C 78.6411,91.1927 78.6411,85.8594 79,80.5C 79.644,77.3908 80.8107,74.5575 82.5,72C 90.4464,72.7183 97.6131,75.5516 104,80.5C 119.493,79.1741 134.993,79.1741 150.5,80.5C 155.002,77.748 159.669,75.248 164.5,73C 171.927,69.7415 175.761,72.2415 176,80.5C 176.359,85.8594 176.359,91.1927 176,96.5C 183.588,106.675 185.422,117.675 181.5,129.5 Z"/></g>
<g><path style="opacity:1" fill="#141414" d="M 255.5,71.5 C 255.5,115.5 255.5,159.5 255.5,203.5C 248.411,231.588 230.745,248.922 202.5,255.5C 195.833,255.5 189.167,255.5 182.5,255.5C 166.482,252.404 152.982,244.737 142,232.5C 126.963,212.674 123.63,191.007 132,167.5C 141.741,145.444 158.241,132.778 181.5,129.5C 180.854,133.797 179.354,137.797 177,141.5C 168.398,152.889 156.898,159.222 142.5,160.5C 146.341,164.183 149.174,168.517 151,173.5C 151.333,183.5 151.667,193.5 152,203.5C 154.435,208.224 158.269,209.724 163.5,208C 198.287,190.282 215.62,161.782 215.5,122.5C 237.799,112.534 251.132,95.534 255.5,71.5 Z"/></g>
</svg>
