<?xml version="1.0" encoding="UTF-8"?>
<!DOCTYPE svg PUBLIC "-//W3C//DTD SVG 1.1//EN" "http://www.w3.org/Graphics/SVG/1.1/DTD/svg11.dtd">
<svg xmlns="http://www.w3.org/2000/svg" version="1.1" width="512px" height="512px" style="shape-rendering:geometricPrecision; text-rendering:geometricPrecision; image-rendering:optimizeQuality; fill-rule:evenodd; clip-rule:evenodd" xmlns:xlink="http://www.w3.org/1999/xlink">
<g><path style="opacity:1" fill="#417ccc" d="M 111.5,-0.5 C 205.833,-0.5 300.167,-0.5 394.5,-0.5C 425.103,6.60023 444.937,25.2669 454,55.5C 459.596,94.8171 444.429,122.65 408.5,139C 403.305,140.933 397.972,142.267 392.5,143C 335.5,143.333 278.5,143.667 221.5,144C 197.759,145.972 174.759,151.138 152.5,159.5C 168.088,144.99 171.588,127.99 163,108.5C 146.711,85.4333 126.544,81.2667 102.5,96C 85.8252,111.518 82.9918,129.351 94,149.5C 103.791,162.716 116.958,168.716 133.5,167.5C 54.9104,209.81 10.2438,275.477 -0.5,364.5C -0.5,280.167 -0.5,195.833 -0.5,111.5C 8.7041,57.4517 39.3708,21.6184 91.5,4C 98.2585,2.28494 104.925,0.784944 111.5,-0.5 Z"/></g>
<g><path style="opacity:0.999" fill="#2864b4" d="M 394.5,-0.5 C 396.167,-0.5 397.833,-0.5 399.5,-0.5C 453.548,8.7041 489.382,39.3708 507,91.5C 508.715,98.2585 510.215,104.925 511.5,111.5C 511.5,121.167 511.5,130.833 511.5,140.5C 501.957,198.044 469.291,235.377 413.5,252.5C 400.655,208.225 370.988,188.059 324.5,192C 301.811,196.254 284.311,208.087 272,227.5C 271.667,221.833 271.333,216.167 271,210.5C 269.221,206.388 266.388,203.222 262.5,201C 247.902,199.384 233.235,199.051 218.5,200C 213.667,202.167 210.167,205.667 208,210.5C 207.333,274.833 207.333,339.167 208,403.5C 209.743,408.91 213.243,412.744 218.5,415C 232.163,415.5 245.829,415.667 259.5,415.5C 276.741,470.411 313.741,502.411 370.5,511.5C 284.167,511.5 197.833,511.5 111.5,511.5C 57.4517,502.296 21.6184,471.629 4,419.5C 2.28494,412.741 0.784944,406.075 -0.5,399.5C -0.5,387.833 -0.5,376.167 -0.5,364.5C 10.2438,275.477 54.9104,209.81 133.5,167.5C 140.199,165.649 146.533,162.982 152.5,159.5C 174.759,151.138 197.759,145.972 221.5,144C 278.5,143.667 335.5,143.333 392.5,143C 397.972,142.267 403.305,140.933 408.5,139C 444.429,122.65 459.596,94.8171 454,55.5C 444.937,25.2669 425.103,6.60023 394.5,-0.5 Z"/></g>
<g><path style="opacity:1" fill="#fdfefe" d="M 152.5,159.5 C 146.533,162.982 140.199,165.649 133.5,167.5C 116.958,168.716 103.791,162.716 94,149.5C 82.9918,129.351 85.8252,111.518 102.5,96C 126.544,81.2667 146.711,85.4333 163,108.5C 171.588,127.99 168.088,144.99 152.5,159.5 Z"/></g>
<g><path style="opacity:1" fill="#0f4b9b" d="M 511.5,140.5 C 511.5,226.833 511.5,313.167 511.5,399.5C 502.296,453.548 471.629,489.382 419.5,507C 412.741,508.715 406.075,510.215 399.5,511.5C 389.833,511.5 380.167,511.5 370.5,511.5C 313.741,502.411 276.741,470.411 259.5,415.5C 264.729,413.44 268.563,409.774 271,404.5C 271.5,376.502 271.667,348.502 271.5,320.5C 287.931,292.433 311.597,273.1 342.5,262.5C 346.362,267.558 349.196,273.225 351,279.5C 351.016,321.893 351.683,364.226 353,406.5C 355.222,410.388 358.388,413.221 362.5,415C 376.167,415.667 389.833,415.667 403.5,415C 408.91,413.257 412.744,409.757 415,404.5C 415.667,357.5 415.667,310.5 415,263.5C 414.064,259.886 413.564,256.22 413.5,252.5C 469.291,235.377 501.957,198.044 511.5,140.5 Z"/></g>
<g><path style="opacity:1" fill="#fefefe" d="M 413.5,252.5 C 413.564,256.22 414.064,259.886 415,263.5C 415.667,310.5 415.667,357.5 415,404.5C 412.744,409.757 408.91,413.257 403.5,415C 389.833,415.667 376.167,415.667 362.5,415C 358.388,413.221 355.222,410.388 353,406.5C 351.683,364.226 351.016,321.893 351,279.5C 349.196,273.225 346.362,267.558 342.5,262.5C 332.158,250.882 319.158,246.049 303.5,248C 287,252.5 276.5,263 272,279.5C 271.5,293.163 271.333,306.829 271.5,320.5C 271.667,348.502 271.5,376.502 271,404.5C 268.563,409.774 264.729,413.44 259.5,415.5C 245.829,415.667 232.163,415.5 218.5,415C 213.243,412.744 209.743,408.91 208,403.5C 207.333,339.167 207.333,274.833 208,210.5C 210.167,205.667 213.667,202.167 218.5,200C 233.235,199.051 247.902,199.384 262.5,201C 266.388,203.222 269.221,206.388 271,210.5C 271.333,216.167 271.667,221.833 272,227.5C 284.311,208.087 301.811,196.254 324.5,192C 370.988,188.059 400.655,208.225 413.5,252.5 Z"/></g>
<g><path style="opacity:1" fill="#fefefe" d="M 106.5,199.5 C 120.504,199.333 134.504,199.5 148.5,200C 153.333,202.167 156.833,205.667 159,210.5C 159.667,274.833 159.667,339.167 159,403.5C 157.167,409.333 153.333,413.167 147.5,415C 133.833,415.667 120.167,415.667 106.5,415C 101.667,412.833 98.1667,409.333 96,404.5C 95.3333,339.833 95.3333,275.167 96,210.5C 98.3566,205.645 101.857,201.979 106.5,199.5 Z"/></g>
<g><path style="opacity:1" fill="#2964b4" d="M 342.5,262.5 C 311.597,273.1 287.931,292.433 271.5,320.5C 271.333,306.829 271.5,293.163 272,279.5C 276.5,263 287,252.5 303.5,248C 319.158,246.049 332.158,250.882 342.5,262.5 Z"/></g>
</svg>
