<?xml version="1.0" encoding="UTF-8"?>
<!DOCTYPE svg PUBLIC "-//W3C//DTD SVG 1.1//EN" "http://www.w3.org/Graphics/SVG/1.1/DTD/svg11.dtd">
<svg xmlns="http://www.w3.org/2000/svg" version="1.1" width="512px" height="512px" style="shape-rendering:geometricPrecision; text-rendering:geometricPrecision; image-rendering:optimizeQuality; fill-rule:evenodd; clip-rule:evenodd" xmlns:xlink="http://www.w3.org/1999/xlink">
<g><path style="opacity:0.995" fill="#2196f3" d="M 233.5,-0.5 C 248.167,-0.5 262.833,-0.5 277.5,-0.5C 377.805,11.9821 449.305,63.9821 492,155.5C 502.297,180.687 508.797,206.687 511.5,233.5C 511.5,248.167 511.5,262.833 511.5,277.5C 499.018,377.805 447.018,449.305 355.5,492C 330.313,502.297 304.313,508.797 277.5,511.5C 262.833,511.5 248.167,511.5 233.5,511.5C 133.195,499.018 61.6947,447.018 19,355.5C 8.70332,330.313 2.20332,304.313 -0.5,277.5C -0.5,262.833 -0.5,248.167 -0.5,233.5C 11.9821,133.195 63.9821,61.6947 155.5,19C 180.687,8.70332 206.687,2.20332 233.5,-0.5 Z"/></g>
<g><path style="opacity:1" fill="#f9f9f9" d="M 123.5,111.5 C 145.836,111.333 168.169,111.5 190.5,112C 195.91,113.743 199.744,117.243 202,122.5C 202.032,151.957 208.365,179.957 221,206.5C 222.745,213.564 221.245,219.731 216.5,225C 207.179,229.326 198.179,234.159 189.5,239.5C 209.833,273.833 237.167,301.167 271.5,321.5C 276.303,312.566 281.136,303.566 286,294.5C 292.036,289.278 298.869,288.111 306.5,291C 332.123,303.105 359.123,309.105 387.5,309C 392.91,310.743 396.744,314.243 399,319.5C 399.667,342.167 399.667,364.833 399,387.5C 395.379,396.435 388.712,400.435 379,399.5C 288.346,395.68 216.013,357.68 162,285.5C 126.537,235.299 110.537,179.633 114,118.5C 116.529,115.115 119.696,112.782 123.5,111.5 Z"/></g>
</svg>
